<svg xmlns="http://www.w3.org/2000/svg" viewBox="0 0 216.65 34.88"><defs><style>.cls-1{fill:#cbdf90;}</style></defs><g id="Layer_2" data-name="Layer 2"><g id="Layer_1-2" data-name="Layer 1"><path class="cls-1" d="M23.13,28.28a.77.77,0,0,1,.59.28l1.63,1.75a13,13,0,0,1-4.51,3.36,15.36,15.36,0,0,1-6.42,1.21A15.09,15.09,0,0,1,8.5,33.75,13.13,13.13,0,0,1,4,30.58,14.43,14.43,0,0,1,1,25.68,18.31,18.31,0,0,1,0,19.4a17.66,17.66,0,0,1,1.08-6.28,14.37,14.37,0,0,1,3-4.9A13.54,13.54,0,0,1,8.8,5a15.41,15.41,0,0,1,6-1.14,14.69,14.69,0,0,1,5.71,1,14.34,14.34,0,0,1,4.35,2.81L23.53,9.63a1,1,0,0,1-.33.35.94.94,0,0,1-.54.14,1.73,1.73,0,0,1-.93-.41,12.91,12.91,0,0,0-1.43-.92,10.93,10.93,0,0,0-2.22-.92,11.06,11.06,0,0,0-3.28-.41,11,11,0,0,0-4.29.81,9.24,9.24,0,0,0-3.35,2.36A10.81,10.81,0,0,0,5,14.39a15.05,15.05,0,0,0-.78,5A14.66,14.66,0,0,0,5,24.45a11.09,11.09,0,0,0,2.22,3.76,9.31,9.31,0,0,0,3.32,2.33,10.46,10.46,0,0,0,4.13.81,17.84,17.84,0,0,0,2.44-.16,9.85,9.85,0,0,0,2-.5,8.35,8.35,0,0,0,1.72-.85,13.08,13.08,0,0,0,1.57-1.24A1.11,1.11,0,0,1,23.13,28.28Z"/><path class="cls-1" d="M33,16a11.26,11.26,0,0,1,3-2.33,8.19,8.19,0,0,1,3.85-.87,7.64,7.64,0,0,1,3.09.59A5.88,5.88,0,0,1,45.23,15a7.36,7.36,0,0,1,1.37,2.57,11.2,11.2,0,0,1,.46,3.32V34.54H43.28V20.9a5.75,5.75,0,0,0-1.11-3.77,4.11,4.11,0,0,0-3.37-1.34,6.25,6.25,0,0,0-3.12.8A10.28,10.28,0,0,0,33,18.77V34.54H29.22V3.4H33Z"/><path class="cls-1" d="M70.19,31.54A7.2,7.2,0,0,1,68.52,33a10.85,10.85,0,0,1-2.08,1,12.64,12.64,0,0,1-2.29.6,13.5,13.5,0,0,1-2.35.21,10.9,10.9,0,0,1-4.09-.76,9,9,0,0,1-3.24-2.19,10.12,10.12,0,0,1-2.12-3.59,14.49,14.49,0,0,1-.76-4.9,12.7,12.7,0,0,1,.68-4.19,9.85,9.85,0,0,1,2-3.37A9.09,9.09,0,0,1,57.4,13.6a10.41,10.41,0,0,1,4.19-.82,9.63,9.63,0,0,1,3.56.65A8,8,0,0,1,68,15.29a8.45,8.45,0,0,1,1.87,3,11.24,11.24,0,0,1,.68,4.07,2.46,2.46,0,0,1-.19,1.19.81.81,0,0,1-.72.29H55.31a12.49,12.49,0,0,0,.56,3.53,7.13,7.13,0,0,0,1.38,2.51,5.63,5.63,0,0,0,2.12,1.5,7.28,7.28,0,0,0,2.75.5,8,8,0,0,0,2.44-.33,12.11,12.11,0,0,0,1.76-.71,11.57,11.57,0,0,0,1.24-.71,1.64,1.64,0,0,1,.86-.33.83.83,0,0,1,.72.36Zm-3-10a7.54,7.54,0,0,0-.37-2.39,5.49,5.49,0,0,0-1.08-1.89A4.82,4.82,0,0,0,64,16a6.48,6.48,0,0,0-6.59,1.14,7.34,7.34,0,0,0-2,4.36Z"/><path class="cls-1" d="M79,3.4V34.54H75.27V3.4Z"/><path class="cls-1" d="M100,16.93a2,2,0,0,1-.33.36.82.82,0,0,1-.47.12,1.24,1.24,0,0,1-.7-.26,9.45,9.45,0,0,0-.94-.58A7.14,7.14,0,0,0,96.21,16a6.41,6.41,0,0,0-2-.27,6.58,6.58,0,0,0-2.79.56,5.5,5.5,0,0,0-2,1.62,7.53,7.53,0,0,0-1.23,2.56,12.89,12.89,0,0,0-.41,3.36,12.15,12.15,0,0,0,.45,3.46,7.31,7.31,0,0,0,1.25,2.53,5.43,5.43,0,0,0,2,1.57,6,6,0,0,0,2.59.54,6.54,6.54,0,0,0,2.26-.33,6.7,6.7,0,0,0,1.47-.73c.39-.27.71-.51,1-.73a1.21,1.21,0,0,1,.78-.33.8.8,0,0,1,.71.36l1.06,1.38A7.38,7.38,0,0,1,99.69,33a9.53,9.53,0,0,1-1.92,1,9.7,9.7,0,0,1-2.14.6,13.36,13.36,0,0,1-2.29.2,9.41,9.41,0,0,1-3.73-.74,8.59,8.59,0,0,1-3-2.15,10,10,0,0,1-2-3.46,14,14,0,0,1-.72-4.67,14.22,14.22,0,0,1,.67-4.42,10,10,0,0,1,1.94-3.5,9,9,0,0,1,3.15-2.29A10.62,10.62,0,0,1,94,12.78a10.24,10.24,0,0,1,4,.73A9.76,9.76,0,0,1,101,15.57Z"/><path class="cls-1" d="M110.09,6.4a2.45,2.45,0,0,1-.22,1,3,3,0,0,1-.6.85,2.56,2.56,0,0,1-.86.58,2.66,2.66,0,0,1-1,.21,2.53,2.53,0,0,1-1-.21,2.65,2.65,0,0,1-.83-.58,2.88,2.88,0,0,1-.57-.85,2.45,2.45,0,0,1-.21-1,2.66,2.66,0,0,1,.21-1.05,2.69,2.69,0,0,1,.57-.86,2.85,2.85,0,0,1,.83-.59,2.53,2.53,0,0,1,1-.21,2.66,2.66,0,0,1,1,.21,2.92,2.92,0,0,1,1.46,1.45A2.67,2.67,0,0,1,110.09,6.4Zm-.81,6.72V34.54h-3.76V13.12Z"/><path class="cls-1" d="M132.84,31.54A7.63,7.63,0,0,1,131.17,33a10.94,10.94,0,0,1-2.09,1,12.64,12.64,0,0,1-2.29.6,13.42,13.42,0,0,1-2.35.21,10.9,10.9,0,0,1-4.09-.76,9,9,0,0,1-3.23-2.19A10.13,10.13,0,0,1,115,28.3a14.49,14.49,0,0,1-.76-4.9,12.44,12.44,0,0,1,.69-4.19,9.85,9.85,0,0,1,2-3.37A9,9,0,0,1,120,13.6a10.44,10.44,0,0,1,4.19-.82,9.63,9.63,0,0,1,3.56.65,8.06,8.06,0,0,1,2.84,1.86,8.59,8.59,0,0,1,1.87,3,11.47,11.47,0,0,1,.67,4.07,2.46,2.46,0,0,1-.19,1.19.78.78,0,0,1-.71.29H118a12.49,12.49,0,0,0,.56,3.53,7.14,7.14,0,0,0,1.39,2.51,5.52,5.52,0,0,0,2.11,1.5,7.32,7.32,0,0,0,2.75.5,8,8,0,0,0,2.44-.33,11.72,11.72,0,0,0,3-1.42,1.67,1.67,0,0,1,.86-.33.83.83,0,0,1,.72.36Zm-3.05-10a7.26,7.26,0,0,0-.37-2.39,5.34,5.34,0,0,0-1.08-1.89A4.73,4.73,0,0,0,126.62,16,6.48,6.48,0,0,0,120,17.13a7.34,7.34,0,0,0-2,4.36Z"/><path class="cls-1" d="M139.51,19.72c-.95,0-1.25-.52-1.25-1.21s.35-1.12,1.42-1.16c.22-3.06.39-6.33.39-10.25,0-2.2-.08-3-.08-3h7.49c5.6,0,7.88,0,8.61-.73l.22.13c0,1.8-.05,3.83-2.63,3.83a35.13,35.13,0,0,1-8.4-.78c-.13,1.81-.51,6.51-.82,10.86h7.63A5.12,5.12,0,0,0,154.5,17c-.17,2-.56,3.18-2.67,3.18s-7.58-.26-7.58-.26L144,24c-.17,2.41-.26,5-.47,7.8-.22,2.32-1.38,2.93-2.8,2.93a18.32,18.32,0,0,1-2.76-.43S138.65,33.07,139.51,19.72Z"/><path class="cls-1" d="M155.88,27c0-8.19,5.17-14.86,12.27-14.86,1.55,0,3.36.56,6.5.65l.13.12c-.51,2-2,14.09-2,15.59,0,1.94.34,3.62,1.85,3.62,1.21,0,2.46-1.08,3.49-2.37a24.24,24.24,0,0,0,2.54-4,.76.76,0,0,1,.73-.48c.43,0,.95.39.73.91a23.41,23.41,0,0,1-4,6,7.69,7.69,0,0,1-5.34,2.59,4.23,4.23,0,0,1-4.44-4.53,4,4,0,0,1,.05-.77h-.22c-1.29,2.5-3.79,5.47-7,5.47S155.88,31.82,155.88,27ZM169,23.59c.34-2.19.6-4.65.82-7.36a2,2,0,0,0-2.2-2c-4.91,0-7.06,7.36-7.06,12.45,0,2.79.86,5.42,2.37,5.42C165.35,32.12,168.45,26.78,169,23.59Z"/><path class="cls-1" d="M181.12,17.35a18.32,18.32,0,0,0-.56-4.61,10.54,10.54,0,0,1,2.45-.43c1.72,0,2.71,1.16,2.71,3.19a10.48,10.48,0,0,1-.38,2.58h.21c1.64-3.06,3.79-5.94,7.71-5.94,3.57,0,4.48,2.41,4.48,5.55,0,3.49-1.16,7.33-1.16,10.81,0,1.94.34,3.62,1.85,3.62,1.33,0,2.62-1.29,3.49-2.37a24.24,24.24,0,0,0,2.54-4,.76.76,0,0,1,.73-.48c.43,0,.95.39.73.91a23.41,23.41,0,0,1-4,6,7.74,7.74,0,0,1-5.34,2.59c-2.85,0-4.35-2-4.35-4.87,0-2.46,1.07-7.75,1.07-11.24,0-2.54-.56-3.62-1.94-3.62-2.23,0-4.13,2.93-5.29,5.64a26.24,26.24,0,0,0-1.9,10.55c0,3.41-.39,3.45-4.65,3.45C179.52,30.53,181.12,21.83,181.12,17.35Z"/><path class="cls-1" d="M204.54,25a1.93,1.93,0,0,1,1.34.51,6.26,6.26,0,0,0-1,3.36,3.83,3.83,0,0,0,4.18,4c2.24,0,3.75-1.12,3.75-3.19,0-4.91-8.7-5.12-8.7-11.41,0-3.88,3.49-6.16,7.41-6.16,2.15,0,5.17.69,5.17,2.5a3.69,3.69,0,0,1-1,2.19h-.22s-2.67-2.41-5.08-2.41a2.34,2.34,0,0,0-2.63,2.33c0,4.22,8.62,4.35,8.62,11.32,0,4.53-3.84,6.81-7.88,6.81-4.66,0-6.94-3-6.94-5.9C201.57,26.87,202.82,25,204.54,25Z"/><polygon class="cls-1" points="13.14 5.1 5.68 7.83 7.04 0 13.14 5.1"/><polygon class="cls-1" points="15.03 5.1 22.5 7.83 21.13 0 15.03 5.1"/></g></g></svg>